<svg width="80" height="80" viewBox="0 0 80 80" fill="none" xmlns="http://www.w3.org/2000/svg">
<circle cx="40" cy="40" r="40" fill="#00E66F"/>
<path d="M53.7187 27.2062C51.9997 25.4699 49.9522 24.0931 47.6956 23.1563C45.4389 22.2196 43.0183 21.7415 40.575 21.75C30.3375 21.75 21.9938 30.0937 21.9938 40.3312C21.9938 43.6125 22.8563 46.8 24.4688 49.6125L21.8438 59.25L31.6875 56.6625C34.4062 58.1437 37.4625 58.9312 40.575 58.9312C50.8125 58.9312 59.1563 50.5875 59.1563 40.35C59.1563 35.3812 57.225 30.7125 53.7187 27.2062V27.2062ZM40.575 55.7812C37.8 55.7812 35.0812 55.0312 32.7 53.625L32.1375 53.2875L26.2875 54.825L27.8437 49.125L27.4688 48.5437C25.927 46.0818 25.1084 43.2361 25.1062 40.3312C25.1062 31.8187 32.0437 24.8812 40.5562 24.8812C44.6812 24.8812 48.5625 26.4937 51.4687 29.4187C52.9078 30.8512 54.0482 32.555 54.8239 34.4314C55.5995 36.3078 55.9951 38.3196 55.9875 40.35C56.025 48.8625 49.0875 55.7812 40.575 55.7812V55.7812ZM49.05 44.2312C48.5812 44.0062 46.2937 42.8812 45.8812 42.7125C45.45 42.5625 45.15 42.4875 44.8312 42.9375C44.5125 43.4062 43.6312 44.4562 43.3687 44.7562C43.1062 45.075 42.825 45.1125 42.3562 44.8687C41.8875 44.6437 40.3875 44.1375 38.625 42.5625C37.2375 41.325 36.3187 39.8062 36.0375 39.3375C35.775 38.8687 36 38.625 36.2437 38.3812C36.45 38.175 36.7125 37.8375 36.9375 37.575C37.1625 37.3125 37.2562 37.1062 37.4062 36.8062C37.5562 36.4875 37.4812 36.225 37.3687 36C37.2562 35.775 36.3187 33.4875 35.9437 32.55C35.5687 31.65 35.175 31.7625 34.8937 31.7437H33.9937C33.675 31.7437 33.1875 31.8562 32.7562 32.325C32.3437 32.7937 31.1437 33.9187 31.1437 36.2062C31.1437 38.4937 32.8125 40.7062 33.0375 41.0062C33.2625 41.325 36.3187 46.0125 40.9687 48.0187C42.075 48.5062 42.9375 48.7875 43.6125 48.9937C44.7187 49.35 45.7312 49.2937 46.5375 49.1812C47.4375 49.05 49.2937 48.0562 49.6687 46.9687C50.0625 45.8812 50.0625 44.9625 49.9312 44.7562C49.8 44.55 49.5187 44.4562 49.05 44.2312V44.2312Z" fill="#FAFAFA"/>
</svg>
