<svg width="80" height="80" viewBox="0 0 80 80" fill="none" xmlns="http://www.w3.org/2000/svg">
<rect width="80" height="80" rx="18" fill="#D3D3F8"/>
<path d="M15.1345 36.782L19.3849 26.9876C20.0031 26.7477 20.6085 27.0209 20.8339 27.1875C21.9931 27.987 24.8718 29.766 27.1129 30.4856C29.354 31.2052 33.585 29.8526 35.4204 29.0864C34.9052 29.4862 33.6816 30.5456 32.9088 31.585C31.9428 32.8842 30.687 34.3834 31.0734 36.1824C31.4598 37.9814 33.6816 40.1801 36.2898 40.7798C38.898 41.3795 41.313 39.0807 42.5688 37.8814C43.5734 36.922 44.5973 37.0152 44.9837 37.1818L55.4165 47.1762C55.7707 47.9091 56.2279 49.5948 55.2233 50.4743C54.2186 51.3538 52.7439 51.1739 52.1321 50.974C52.2609 51.4071 52.306 52.4532 51.4559 53.1728C50.6058 53.8924 48.9121 53.6059 48.1715 53.3727C48.1715 53.4726 48.0749 53.9724 47.6885 55.1717C47.3021 56.371 45.4023 56.2044 44.5007 55.9712C44.5007 56.2377 44.2689 56.9907 43.3416 57.8702C42.4142 58.7497 40.6368 57.9035 39.864 57.3704C40.3792 56.8041 41.5448 55.4515 42.0858 54.572C42.762 53.4726 42.4722 51.6736 41.6028 49.9746C40.9073 48.6154 39.1234 48.6753 38.3184 48.8752C38.3184 48.4088 38.0866 47.2162 37.1592 46.1767C36.2318 45.1373 34.9052 45.2106 34.3578 45.3772C34.3578 44.9108 34.1839 43.7581 33.4884 42.8786C32.7929 41.9991 31.2022 41.9791 30.4938 42.0791C30.3972 40.48 29.8176 39.7804 28.0789 38.581C26.6878 37.6216 25.4385 38.1813 24.9877 38.581L21.1237 42.8786C19.5459 41.7459 16.2164 39.3006 15.5209 38.581C14.8254 37.8614 14.9735 37.0819 15.1345 36.782Z" fill="#6464E7"/>
<path d="M34.2613 34.7832L37.6422 31.2851C38.2862 30.6855 39.8254 29.1863 40.83 27.987C42.0858 26.4879 43.6314 26.3879 45.0804 26.3879C46.5294 26.3879 49.0409 27.8871 51.8423 27.987C54.6437 28.087 56.3825 25.9881 57.8315 24.7888C58.9907 23.8293 59.9889 24.2558 60.3431 24.5889C61.6633 27.1875 64.4002 32.6644 64.7866 33.7837C65.173 34.9031 64.9476 35.2496 64.7866 35.2829C62.5005 37.2485 57.7156 41.3595 56.8655 42.0791C56.0154 42.7987 55.4165 42.5788 55.2233 42.3789C53.0015 40.0469 48.2295 35.143 46.9158 34.1835C45.602 33.2241 43.5992 33.7837 42.762 34.1835C42.0536 34.9164 40.347 36.5222 39.1878 37.0819C37.7388 37.7815 36.0966 37.8814 35.0341 37.0819C34.184 36.4422 34.1647 35.2829 34.2613 34.7832Z" fill="#6464E7"/>
<rect width="8.30062" height="3.8146" rx="1.9073" transform="matrix(0.637521 -0.770433 0.748567 0.663059 21.2202 46.6816)" fill="#6464E7"/>
<rect width="8.30062" height="3.8146" rx="1.9073" transform="matrix(0.637521 -0.770433 0.748567 0.663059 25.0844 50.0732)" fill="#6464E7"/>
<rect width="8.30062" height="3.8146" rx="1.9073" transform="matrix(0.637521 -0.770433 0.748567 0.663059 28.9481 53.4648)" fill="#6464E7"/>
<rect width="8.30062" height="3.8146" rx="1.9073" transform="matrix(0.637521 -0.770433 0.748567 0.663059 32.8123 56.8563)" fill="#6464E7"/>
</svg>
