<svg width="80" height="80" viewBox="0 0 80 80" fill="none" xmlns="http://www.w3.org/2000/svg">
<rect width="80" height="80" rx="18" fill="#D3D3F8"/>
<path d="M20.2906 56.5535V38.9795H28.3932V56.5535H20.2906Z" fill="#6464E7"/>
<path d="M33.4564 55.1556V39.1792C35.9547 33.6541 41.2349 22.3242 42.3692 21.2058C43.7872 19.8079 46.8257 19.6082 47.6359 22.6037C48.2841 25.0002 46.5556 31.0579 45.6103 33.7872C50.2692 33.7206 60.0328 33.7473 61.8154 34.3863C64.0436 35.1851 63.4359 37.3819 63.0308 39.5786C62.6257 41.7754 59.5872 47.7665 57.9667 51.7606C56.6703 54.9559 54.4556 55.8878 53.5103 55.9544C51.5522 56.1541 46.2585 56.6334 40.7487 56.9529C35.239 57.2724 33.5915 55.8878 33.4564 55.1556Z" fill="#6464E7"/>
<mask id="mask0_177_447" style="mask-type:alpha" maskUnits="userSpaceOnUse" x="0" y="0" width="80" height="80">
<path d="M0 18C0 8.05888 8.05887 0 18 0H62C71.9411 0 80 8.05887 80 18V62C80 71.9411 71.9411 80 62 80H18C8.05888 80 0 71.9411 0 62V18Z" fill="#D3D3F8"/>
</mask>
<g mask="url(#mask0_177_447)">
<path d="M59 12.618L60.9941 18.7553L61.1064 19.1008H61.4697H67.9228L62.7021 22.8939L62.4082 23.1074L62.5205 23.4529L64.5146 29.5902L59.2939 25.7971L59 25.5836L58.7061 25.7971L53.4854 29.5902L55.4795 23.4529L55.5918 23.1074L55.2979 22.8939L50.0772 19.1008H56.5303H56.8936L57.0059 18.7553L59 12.618Z" fill="#6464E7" stroke="#D3D3F8"/>
</g>
</svg>
