<svg width="80" height="80" viewBox="0 0 80 80" fill="none" xmlns="http://www.w3.org/2000/svg">
<rect width="80" height="80" rx="18" fill="#D3D3F8"/>
<path d="M27.6681 21.347H57.9754L53.0494 48.0642H22.7422L27.6681 21.347Z" fill="#6464E7"/>
<path d="M54.8862 47.6467L57.9754 30.7815H65.7401L71 39.0471L69.4137 47.6467H54.8862Z" fill="#6464E7"/>
<path d="M60.1461 37.2938L60.8976 32.7853H64.4042L66.9089 37.2938H60.1461Z" fill="#D3D3F8"/>
<path d="M58.4679 52.9215C60.8489 54.2443 63.8009 53.1177 65.1394 50.7085C66.478 48.2992 65.8751 45.1977 63.4941 43.8748C61.1131 42.552 58.1612 43.6786 56.8226 46.0878C55.4841 48.4971 56.087 51.5986 58.4679 52.9215Z" fill="#6464E7" stroke="#D3D3F8" stroke-width="2"/>
<path d="M29.2979 52.9215C31.6789 54.2443 34.6308 53.1177 35.9694 50.7085C37.3079 48.2992 36.705 45.1977 34.324 43.8748C31.943 42.552 28.9911 43.6786 27.6525 46.0878C26.314 48.4971 26.9169 51.5986 29.2979 52.9215Z" fill="#6464E7" stroke="#D3D3F8" stroke-width="2"/>
<rect x="22.3257" y="24.6876" width="18.5331" height="3.33775" rx="1.66887" fill="#6464E7" stroke="#D3D3F8"/>
<rect x="19.487" y="27.8603" width="18.5331" height="3.33775" rx="1.66887" fill="#6464E7" stroke="#D3D3F8"/>
<rect x="15.9803" y="31.033" width="26.5483" height="3.33775" rx="1.66887" fill="#6464E7" stroke="#D3D3F8"/>
<rect x="19.487" y="34.2056" width="17.3642" height="3.33775" rx="1.66887" fill="#6464E7" stroke="#D3D3F8"/>
<rect x="8.9671" y="27.8603" width="9.51609" height="3.33775" rx="1.66887" fill="#6464E7" stroke="#D3D3F8"/>
<rect x="12.4737" y="34.2056" width="6.00946" height="3.33775" rx="1.66887" fill="#6464E7" stroke="#D3D3F8"/>
</svg>
